<mxfile host="app.diagrams.net" modified="2023-08-02T20:22:36.175Z" agent="Mozilla/5.0 (Windows NT 10.0; Win64; x64) AppleWebKit/537.36 (KHTML, like Gecko) Chrome/115.0.0.0 Safari/537.36" version="21.5.0" etag="H8yAWw-QHUVifVLHKXPh" type="github">
  <diagram name="PÃ¡gina-1" id="g_euJ2_P6S3ZEh4P-XAv">
    <mxGraphModel>
      <root>
        <mxCell id="0" />
        <mxCell id="1" parent="0" />
      </root>
    </mxGraphModel>
  </diagram>
</mxfile>
